<?xml version="1.0" encoding="utf-8"?>
<!-- Generator: Adobe Illustrator 25.2.3, SVG Export Plug-In . SVG Version: 6.00 Build 0)  -->
<svg version="1.1" id="Layer_1" xmlns="http://www.w3.org/2000/svg" xmlns:xlink="http://www.w3.org/1999/xlink" x="0px" y="0px"
	 viewBox="0 0 129.01 137.27" style="enable-background:new 0 0 129.01 137.27;" xml:space="preserve">
<style type="text/css">
	.st0{fill:#FD0030;}
	.st1{fill:#00AD5C;}
	.st2{fill:#FDBD24;}
	.st3{fill:#008ACA;}
	.st4{fill:#666666;}
	.st5{fill:#353535;}
</style>
<g>
	<g>
		<circle class="st0" cx="29.82" cy="25.94" r="5.69"/>
		<circle class="st1" cx="99.19" cy="25.94" r="5.69"/>
		<circle class="st2" cx="29.82" cy="95.31" r="5.69"/>
		<circle class="st3" cx="99.19" cy="95.31" r="5.69"/>
	</g>
	<g>
		<polygon class="st4" points="66.15,60.63 75.56,51.22 78.33,53.99 78.33,46.8 71.14,46.8 73.91,49.57 64.5,58.98 51.5,45.98 
			49.85,47.62 62.86,60.63 49.85,73.63 51.5,75.28 64.5,62.27 73.91,71.68 71.14,74.46 78.33,74.46 78.33,67.26 75.56,70.04 		"/>
		<polygon class="st4" points="100.35,76.76 100.35,39.41 98.03,39.41 98.03,76.76 94.1,76.76 99.19,81.84 104.28,76.76 		"/>
		<polygon class="st4" points="85.72,25.94 80.63,20.85 80.63,24.78 43.29,24.78 43.29,27.11 80.63,27.11 80.63,31.03 		"/>
		<polygon class="st4" points="85.72,95.31 80.63,90.22 80.63,94.15 43.29,94.15 43.29,96.48 80.63,96.48 80.63,100.4 		"/>
		<polygon class="st4" points="34.91,44.5 29.82,39.41 24.73,44.5 28.66,44.5 28.66,81.84 30.98,81.84 30.98,44.5 		"/>
		<path class="st4" d="M128.03,16.16c0-8.27-6.73-15-15-15c-6.31,0-11.9,3.91-14.07,9.79l-3.88-0.7l4.11,5.91l5.91-4.11l-3.81-0.68
			c1.93-4.75,6.55-7.89,11.74-7.89c6.99,0,12.68,5.69,12.68,12.68c0,5.82-3.94,10.74-9.3,12.22l-3.45,0.46
			c-1.24-0.01-2.47-0.19-3.65-0.55l-0.68,2.23c1.42,0.44,2.9,0.66,4.4,0.66c0,0,0.01,0,0.01,0c0,0,0.01,0,0.01,0c0,0,0,0,0.01,0
			c0,0,0,0,0.01,0c0,0,0,0,0.01,0c0,0,0,0,0.01,0c0.32,0,0.64-0.01,0.96-0.03c0,0,0,0,0,0c0.99-0.07,1.97-0.23,2.92-0.49l0,0
			C123.33,28.92,128.03,23.08,128.03,16.16z"/>
		<path class="st4" d="M15.98,1.16c-8.27,0-15,6.73-15,15c0,6.92,4.7,12.75,11.08,14.48l0,0c1,0.27,2.03,0.43,3.07,0.49l0.48,3.93
			l4.44-5.66l-5.66-4.44l0.45,3.72l-2.22-0.29c-5.36-1.48-9.3-6.4-9.3-12.22c0-6.99,5.69-12.68,12.68-12.68
			c6.99,0,12.68,5.69,12.68,12.68h2.33C30.98,7.89,24.25,1.16,15.98,1.16z"/>
	</g>
	<g>
		<path class="st5" d="M14.02,130.87c0,1.07-0.27,2.02-0.82,2.85c-0.54,0.83-1.33,1.48-2.35,1.94c-1.02,0.46-2.22,0.69-3.6,0.69
			c-1.15,0-2.11-0.08-2.89-0.24c-0.78-0.16-1.59-0.44-2.43-0.84v-4.16c0.89,0.46,1.82,0.81,2.78,1.07c0.96,0.26,1.84,0.38,2.65,0.38
			c0.69,0,1.2-0.12,1.52-0.36c0.32-0.24,0.48-0.55,0.48-0.93c0-0.24-0.07-0.44-0.2-0.62c-0.13-0.18-0.34-0.36-0.63-0.54
			c-0.29-0.18-1.05-0.55-2.3-1.11c-1.13-0.51-1.97-1.01-2.53-1.49c-0.56-0.48-0.98-1.03-1.25-1.65s-0.41-1.36-0.41-2.21
			c0-1.59,0.58-2.83,1.74-3.72c1.16-0.89,2.75-1.33,4.77-1.33c1.79,0,3.61,0.41,5.47,1.24l-1.43,3.6c-1.61-0.74-3.01-1.11-4.18-1.11
			c-0.61,0-1.05,0.11-1.32,0.32c-0.28,0.21-0.41,0.48-0.41,0.79c0,0.34,0.18,0.64,0.53,0.91c0.35,0.27,1.3,0.76,2.85,1.46
			c1.49,0.67,2.52,1.39,3.1,2.16C13.73,128.73,14.02,129.7,14.02,130.87z"/>
		<path class="st5" d="M29.15,136.11h-4.67v-13.45h-4.22v-3.82h13.09v3.82h-4.21V136.11z"/>
		<path class="st5" d="M55.41,136.11h-5.27l-3.41-6.6l-1.38,0.83v5.78h-4.69v-17.27h4.69v7.5c0.24-0.46,0.71-1.2,1.43-2.21
			l3.63-5.29h5.1l-5.45,7.74L55.41,136.11z"/>
		<path class="st5" d="M66.71,136.11h-4.59v-17.27h10.21v3.74h-5.61v3.3h5.17v3.74h-5.17V136.11z"/>
		<path class="st5" d="M87.52,136.11l-3.53-12.44h-0.11c0.17,2.12,0.25,3.76,0.25,4.94v7.5H80v-17.27h6.21l3.6,12.26h0.09
			l3.53-12.26h6.23v17.27h-4.29v-7.57c0-0.39,0.01-0.83,0.02-1.31c0.01-0.48,0.07-1.66,0.16-3.53h-0.11l-3.48,12.42H87.52z"/>
		<path class="st5" d="M115.75,136.11l-3.53-12.44h-0.11c0.17,2.12,0.25,3.76,0.25,4.94v7.5h-4.13v-17.27h6.21l3.6,12.26h0.09
			l3.53-12.26h6.23v17.27h-4.29v-7.57c0-0.39,0.01-0.83,0.02-1.31c0.01-0.48,0.06-1.66,0.16-3.53h-0.11l-3.48,12.42H115.75z"/>
	</g>
</g>
</svg>
